<?xml version="1.0" encoding="UTF-8"?>
<svg width="20px" height="33px" viewBox="0 0 20 33" version="1.1" xmlns="http://www.w3.org/2000/svg" xmlns:xlink="http://www.w3.org/1999/xlink">
    <!-- Generator: Sketch 47 (45396) - http://www.bohemiancoding.com/sketch -->
    <title>marker</title>
    <desc>Created with Sketch.</desc>
    <defs></defs>
    <g id="Page-1" stroke="none" stroke-width="1" fill="none" fill-rule="evenodd">
        <g id="marker" fill-rule="nonzero" fill="#e2031a">
            <path d="M10,0 C4.4775625,0 0,4.61645508 0,10.3125 C0,11.9077148 0.3515625,13.4203652 0.9795,14.7678223 C1.014625,14.8443926 10,33 10,33 L18.912125,14.9934082 C19.6074375,13.5895547 20,11.9983359 20,10.3125 C20,4.61645508 15.5234375,0 10,0 Z M10,16.5 C6.6865,16.5 4,13.7285156 4,10.3125 C4,6.89648438 6.6865,4.125 10,4.125 C13.3125,4.125 16,6.89648438 16,10.3125 C16,13.7285156 13.3125,16.5 10,16.5 Z" id="Shape"></path>
        </g>
    </g>
</svg>